<?xml version="1.0" encoding="UTF-8" standalone="no"?>
<!-- Created with Inkscape (http://www.inkscape.org/) -->

<svg
   xmlns:dc="http://purl.org/dc/elements/1.1/"
   xmlns:cc="http://creativecommons.org/ns#"
   xmlns:rdf="http://www.w3.org/1999/02/22-rdf-syntax-ns#"
   xmlns:svg="http://www.w3.org/2000/svg"
   xmlns="http://www.w3.org/2000/svg"
   xmlns:sodipodi="http://sodipodi.sourceforge.net/DTD/sodipodi-0.dtd"
   xmlns:inkscape="http://www.inkscape.org/namespaces/inkscape"
   width="210mm"
   height="297mm"
   viewBox="0 0 210 297"
   version="1.1"
   id="svg1166"
   inkscape:version="0.92.3 (2405546, 2018-03-11)"
   sodipodi:docname="Logo Celeste.svg">
  <defs
     id="defs1160">
    <clipPath
       clipPathUnits="userSpaceOnUse"
       id="clipPath2781">
      <path
         inkscape:connector-curvature="0"
         id="path2783"
         d="m 382.206,-1040.9168 c 0,0 7.9e-4,0.013 7.9e-4,0.013 l 37.3559,221.53111 a 182.03332,182.03332 0 0 0 47.78305,-134.39614 182.03332,182.03332 0 0 0 -23.09651,-77.89457 z"
         style="opacity:1;fill:#666666;stroke:none;stroke-width:0.26458332" />
    </clipPath>
    <clipPath
       clipPathUnits="userSpaceOnUse"
       id="clipPath2775">
      <path
         inkscape:connector-curvature="0"
         id="path2777"
         d="m 409.09519,-881.25619 -0.2167,0.21418 -199.20554,103.91588 a 182.03332,182.03332 0 0 0 87.03564,16.30586 182.03332,182.03332 0 0 0 122.8551,-58.55253 z"
         style="opacity:1;fill:#666666;stroke:none;stroke-width:0.26458332" />
    </clipPath>
    <clipPath
       clipPathUnits="userSpaceOnUse"
       id="clipPath2765">
      <path
         inkscape:connector-curvature="0"
         id="path2767"
         d="m 104.71248,-963.70406 a 182.03332,182.03332 0 0 0 -1.0455,32.26792 182.03332,182.03332 0 0 0 106.00597,154.31001 l 55.42948,-28.96551 c -0.003,-0.01 -0.0863,-0.19918 -0.0863,-0.19918 z"
         style="opacity:1;fill:#666666;stroke:none;stroke-width:0.26458332" />
    </clipPath>
    <clipPath
       clipPathUnits="userSpaceOnUse"
       id="clipPath2787">
      <path
         inkscape:connector-curvature="0"
         id="path2789"
         d="m 274.4872,-1124.3293 a 182.03332,182.03332 0 0 0 -24.55691,3.4052 l -27.94917,56.0904 222.26916,33.17 a 182.03332,182.03332 0 0 0 -169.76308,-92.6656 z"
         style="opacity:1;fill:#666666;stroke:none;stroke-width:0.26458332" />
    </clipPath>
    <clipPath
       clipPathUnits="userSpaceOnUse"
       id="clipPath2759">
      <path
         inkscape:connector-curvature="0"
         id="path2761"
         d="m 249.68859,-1121.3611 a 182.03332,182.03332 0 0 0 -144.97611,157.65704 l 44.55064,43.60162 c 0.0104,-0.0107 0.23158,-0.18291 0.23158,-0.18291 z"
         style="opacity:1;fill:#666666;stroke:none;stroke-width:0.26458332" />
    </clipPath>
    <clipPath
       clipPathUnits="userSpaceOnUse"
       id="clipPath2759-7">
      <path
         inkscape:connector-curvature="0"
         id="path2761-7"
         d="m 249.68859,-1121.3611 a 182.03332,182.03332 0 0 0 -144.97611,157.65704 l 44.55064,43.60162 c 0.0104,-0.0107 0.23158,-0.18291 0.23158,-0.18291 z"
         style="opacity:1;fill:#666666;stroke:none;stroke-width:0.26458332" />
    </clipPath>
    <filter
       inkscape:collect="always"
       style="color-interpolation-filters:sRGB"
       id="filter2753-9"
       x="-0.08426635"
       width="1.1685327"
       y="-0.061800912"
       height="1.1236018">
      <feGaussianBlur
         inkscape:collect="always"
         stdDeviation="5.0990091"
         id="feGaussianBlur2755-7" />
    </filter>
    <clipPath
       clipPathUnits="userSpaceOnUse"
       id="clipPath2787-6">
      <path
         inkscape:connector-curvature="0"
         id="path2789-2"
         d="m 274.4872,-1124.3293 a 182.03332,182.03332 0 0 0 -24.55691,3.4052 l -27.94917,56.0904 222.26916,33.17 a 182.03332,182.03332 0 0 0 -169.76308,-92.6656 z"
         style="opacity:1;fill:#666666;stroke:none;stroke-width:0.26458332" />
    </clipPath>
    <filter
       inkscape:collect="always"
       style="color-interpolation-filters:sRGB"
       id="filter2749-7"
       x="-0.074997306"
       width="1.1499946"
       y="-0.06528075"
       height="1.1305615">
      <feGaussianBlur
         inkscape:collect="always"
         stdDeviation="5.0990091"
         id="feGaussianBlur2751-1" />
    </filter>
    <clipPath
       clipPathUnits="userSpaceOnUse"
       id="clipPath2765-5">
      <path
         inkscape:connector-curvature="0"
         id="path2767-8"
         d="m 104.71248,-963.70406 a 182.03332,182.03332 0 0 0 -1.0455,32.26792 182.03332,182.03332 0 0 0 106.00597,154.31001 l 55.42948,-28.96551 c -0.003,-0.01 -0.0863,-0.19918 -0.0863,-0.19918 z"
         style="opacity:1;fill:#666666;stroke:none;stroke-width:0.26458332" />
    </clipPath>
    <filter
       inkscape:collect="always"
       style="color-interpolation-filters:sRGB"
       id="filter2745-8"
       x="-0.05732378"
       width="1.1146476"
       y="-0.11531741"
       height="1.2306348">
      <feGaussianBlur
         inkscape:collect="always"
         stdDeviation="5.0990091"
         id="feGaussianBlur2747-4" />
    </filter>
    <clipPath
       clipPathUnits="userSpaceOnUse"
       id="clipPath2775-5">
      <path
         inkscape:connector-curvature="0"
         id="path2777-6"
         d="m 409.09519,-881.25619 -0.2167,0.21418 -199.20554,103.91588 a 182.03332,182.03332 0 0 0 87.03564,16.30586 182.03332,182.03332 0 0 0 122.8551,-58.55253 z"
         style="opacity:1;fill:#666666;stroke:none;stroke-width:0.26458332" />
    </clipPath>
    <filter
       inkscape:collect="always"
       style="color-interpolation-filters:sRGB"
       id="filter2741-5"
       x="-0.16501294"
       width="1.3300259"
       y="-0.054522682"
       height="1.1090454">
      <feGaussianBlur
         inkscape:collect="always"
         stdDeviation="5.0990091"
         id="feGaussianBlur2743-6" />
    </filter>
    <clipPath
       clipPathUnits="userSpaceOnUse"
       id="clipPath2781-8">
      <path
         inkscape:connector-curvature="0"
         id="path2783-4"
         d="m 382.206,-1040.9168 c 0,0 7.9e-4,0.013 7.9e-4,0.013 l 37.3559,221.53111 a 182.03332,182.03332 0 0 0 47.78305,-134.39614 182.03332,182.03332 0 0 0 -23.09651,-77.89457 z"
         style="opacity:1;fill:#666666;stroke:none;stroke-width:0.26458332" />
    </clipPath>
    <filter
       inkscape:collect="always"
       style="color-interpolation-filters:sRGB"
       id="filter2737-8"
       x="-0.056513906"
       width="1.1130278"
       y="-0.10830403"
       height="1.216608">
      <feGaussianBlur
         inkscape:collect="always"
         stdDeviation="5.0990091"
         id="feGaussianBlur2739-8" />
    </filter>
  </defs>
  <sodipodi:namedview
     id="base"
     pagecolor="#ffffff"
     bordercolor="#666666"
     borderopacity="1.0"
     inkscape:pageopacity="0.0"
     inkscape:pageshadow="2"
     inkscape:zoom="0.087500002"
     inkscape:cx="615.76783"
     inkscape:cy="-748.19191"
     inkscape:document-units="px"
     inkscape:current-layer="layer1"
     showgrid="false"
     showborder="false"
     showguides="false"
     inkscape:window-width="1440"
     inkscape:window-height="837"
     inkscape:window-x="-4"
     inkscape:window-y="-4"
     inkscape:window-maximized="1" />
  <metadata
     id="metadata1163">
    <rdf:RDF>
      <cc:Work
         rdf:about="">
        <dc:format>image/svg+xml</dc:format>
        <dc:type
           rdf:resource="http://purl.org/dc/dcmitype/StillImage" />
        <dc:title></dc:title>
      </cc:Work>
    </rdf:RDF>
  </metadata>
  <g
     inkscape:label="Capa 1"
     inkscape:groupmode="layer"
     id="layer1">
    <text
       xml:space="preserve"
       style="font-style:normal;font-weight:normal;font-size:46.47120667px;line-height:1.25;font-family:sans-serif;letter-spacing:0px;word-spacing:0px;fill:#3498db;fill-opacity:1;stroke:none;stroke-width:0.26458332;"
       x="-452.87375"
       y="-72.850296"
       id="text3477"
       inkscape:export-xdpi="19.6"
       inkscape:export-ydpi="19.6"><tspan
         sodipodi:role="line"
         id="tspan3475"
         x="-452.87375"
         y="-31.734175"
         style="font-style:normal;font-variant:normal;font-weight:bold;font-stretch:normal;font-size:223.06181335px;font-family:'Bebas Neue';-inkscape-font-specification:'Bebas Neue Bold';fill:#3498db;stroke-width:0.26458332;fill-opacity:1;" /><tspan
         sodipodi:role="line"
         x="-452.87375"
         y="190.25339"
         style="font-style:normal;font-variant:normal;font-weight:bold;font-stretch:normal;font-size:223.06181335px;font-family:Montserrat;-inkscape-font-specification:'Montserrat Bold';fill:#3498db;stroke-width:0.26458332;fill-opacity:1;"
         id="tspan3479">SECURITECNO</tspan></text>
    <path
       inkscape:export-ydpi="19.6"
       inkscape:export-xdpi="19.6"
       inkscape:connector-curvature="0"
       id="path971"
       d="m -658.11288,-79.557781 a 182.03332,182.03332 0 0 0 -24.7195,1.8939 l -31.334,54.272096 219.8187,46.729 a 182.03332,182.03332 0 0 0 -163.7652,-102.894996 z"
       style="opacity:1;fill:#3498db;stroke:none;stroke-width:0.26458332;fill-opacity:1" />
    <path
       inkscape:export-ydpi="19.6"
       inkscape:export-xdpi="19.6"
       inkscape:connector-curvature="0"
       id="path973"
       d="m -555.70828,10.299214 c 0,0 0,0.013 0,0.013 l 23.70971,223.403996 a 182.03332,182.03332 0 0 0 55.93029,-131.21529 182.03332,182.03332 0 0 0 -18.2795,-79.163605 z"
       style="opacity:1;fill:#3498db;stroke:none;stroke-width:0.26458332;fill-opacity:1" />
    <path
       inkscape:export-ydpi="19.6"
       inkscape:export-xdpi="19.6"
       inkscape:connector-curvature="0"
       id="path975"
       d="m -538.65409,171.30757 -0.22939,0.2005 -205.1994,91.51269 a 182.03332,182.03332 0 0 0 85.8728,21.609 182.03332,182.03332 0 0 0 126.21241,-50.91359 z"
       style="opacity:1;fill:#3498db;stroke:none;stroke-width:0.26458332;fill-opacity:1" />
    <path
       inkscape:export-ydpi="19.6"
       inkscape:export-xdpi="19.6"
       inkscape:connector-curvature="0"
       id="path977"
       d="M -683.04678,-78.114882 A 182.03332,182.03332 0 0 0 -837.41197,70.361279 l 41.7948,46.249851 c 0.011,-0.01 0.2424,-0.1684 0.2424,-0.1684 z"
       style="opacity:1;fill:#3498db;stroke:none;stroke-width:0.26458332;fill-opacity:1" />
    <path
       inkscape:export-ydpi="19.6"
       inkscape:export-xdpi="19.6"
       inkscape:connector-curvature="0"
       id="path979"
       d="m -837.41197,70.361279 a 182.03332,182.03332 0 0 0 -3.021,32.143191 182.03332,182.03332 0 0 0 96.35009,160.51629 l 57.1004,-25.5142 c 0,-0.0101 -0.074,-0.2041 -0.074,-0.2041 z"
       style="opacity:1;fill:#3498db;stroke:none;stroke-width:0.26458332;fill-opacity:1" />
    <path
       inkscape:export-ydpi="19.6"
       inkscape:export-xdpi="19.6"
       clip-path="url(#clipPath2781-8)"
       transform="rotate(3.5134413,-17224.187,-15805.638)"
       style="opacity:1;fill:#333333;stroke:none;stroke-width:0.26458332;filter:url(#filter2737-8)"
       d="m 285.64665,-1124.6631 a 182.03332,182.03332 0 0 0 -24.71943,1.8939 l -31.334,54.2721 219.81863,46.729 a 182.03332,182.03332 0 0 0 -163.7652,-102.895 z"
       id="path981"
       inkscape:connector-curvature="0" />
    <path
       inkscape:export-ydpi="19.6"
       inkscape:export-xdpi="19.6"
       clip-path="url(#clipPath2775-5)"
       transform="rotate(3.5134413,-17224.187,-15805.638)"
       style="opacity:1;fill:#333333;stroke:none;stroke-width:0.26458332;filter:url(#filter2741-5)"
       d="m 388.05125,-1034.8061 c 1e-5,0 0.001,0.013 0.001,0.013 l 23.70966,223.40398 a 182.03332,182.03332 0 0 0 55.9294,-131.21526 182.03332,182.03332 0 0 0 -18.2795,-79.16362 z"
       id="path983"
       inkscape:connector-curvature="0" />
    <path
       inkscape:export-ydpi="19.6"
       inkscape:export-xdpi="19.6"
       clip-path="url(#clipPath2765-5)"
       transform="rotate(3.5134413,-17224.187,-15805.638)"
       style="opacity:1;fill:#333333;stroke:none;stroke-width:0.26458332;filter:url(#filter2745-8)"
       d="m 405.10547,-873.79772 -0.22942,0.2005 -205.19937,91.5127 a 182.03332,182.03332 0 0 0 85.87279,21.609 182.03332,182.03332 0 0 0 126.21244,-50.9136 z"
       id="path985"
       inkscape:connector-curvature="0" />
    <path
       inkscape:export-ydpi="19.6"
       inkscape:export-xdpi="19.6"
       clip-path="url(#clipPath2787-6)"
       transform="rotate(3.5134413,-17224.187,-15805.638)"
       style="opacity:1;fill:#333333;stroke:none;stroke-width:0.26458332;filter:url(#filter2749-7)"
       d="m 260.71276,-1123.2202 a 182.03332,182.03332 0 0 0 -154.36527,148.47618 l 41.79488,46.24986 c 0.011,-0.01 0.24236,-0.1684 0.24236,-0.1684 z"
       id="path987"
       inkscape:connector-curvature="0" />
    <path
       inkscape:export-ydpi="19.6"
       inkscape:export-xdpi="19.6"
       clip-path="url(#clipPath2759-7)"
       transform="rotate(3.5134413,-17224.187,-15805.638)"
       style="opacity:1;fill:#333333;stroke:none;stroke-width:0.26458332;filter:url(#filter2753-9)"
       d="m 106.34749,-974.74402 a 182.03332,182.03332 0 0 0 -3.021,32.1432 182.03332,182.03332 0 0 0 96.35019,160.5163 l 57.10039,-25.5142 c -0.002,-0.01 -0.0739,-0.2041 -0.0739,-0.2041 z"
       id="path989"
       inkscape:connector-curvature="0" />
  </g>
</svg>
